<svg id="e00e1f58-40e2-4e32-9e0d-8ea02db8c1f3" data-name="Layer 1" xmlns="http://www.w3.org/2000/svg" width="40" height="40" viewBox="0 0 40 40"><title>logo</title><rect x="30" y="34.77" width="6.25" height="1.95" fill="#9d1c20"/><rect x="34.78" y="30" width="1.63" height="6.25" fill="#9e1d20"/><rect x="9.81" y="25" width="2.93" height="10" fill="#9e1d20"/><rect x="25" y="9.38" width="10" height="3.39" fill="#9e1d20"/><polygon points="36.25 30 36.25 36.25 30 36.25 30 40 40 40 40 30 36.25 30" fill="#ee3426"/><polygon points="25 12.5 25 25 12.5 25 12.5 35 35 35 35 12.5 25 12.5" fill="#f05025"/><polygon points="40 0 0 0 0 40 10 40 10 10 40 10 40 0" fill="#f47a20"/></svg>